<?xml version="1.0" encoding="UTF-8" standalone="no"?>
<!-- Created with Inkscape (http://www.inkscape.org/) -->

<svg
   width="1024mm"
   height="1024mm"
   viewBox="0 0 1024 1024"
   version="1.1"
   id="svg1"
   xml:space="preserve"
   sodipodi:docname="GAMBLE_FISH_LOGO.svg"
   inkscape:version="1.3 (0e150ed6c4, 2023-07-21)"
   inkscape:export-filename="GAMBLE_FISH_LOGO.png"
   inkscape:export-xdpi="101.6"
   inkscape:export-ydpi="101.6"
   xmlns:inkscape="http://www.inkscape.org/namespaces/inkscape"
   xmlns:sodipodi="http://sodipodi.sourceforge.net/DTD/sodipodi-0.dtd"
   xmlns="http://www.w3.org/2000/svg"
   xmlns:svg="http://www.w3.org/2000/svg"><sodipodi:namedview
     id="namedview1"
     pagecolor="#505050"
     bordercolor="#eeeeee"
     borderopacity="1"
     inkscape:showpageshadow="0"
     inkscape:pageopacity="0"
     inkscape:pagecheckerboard="0"
     inkscape:deskcolor="#505050"
     inkscape:document-units="mm"
     inkscape:zoom="0.21213176"
     inkscape:cx="1360.0038"
     inkscape:cy="1986.9726"
     inkscape:window-width="1920"
     inkscape:window-height="1017"
     inkscape:window-x="1272"
     inkscape:window-y="-8"
     inkscape:window-maximized="1"
     inkscape:current-layer="svg1" /><defs
     id="defs1"><inkscape:path-effect
       effect="simplify"
       id="path-effect3"
       is_visible="true"
       lpeversion="1.3"
       threshold="50"
       steps="1"
       smooth_angles="360"
       helper_size="10"
       simplify_individual_paths="false"
       simplify_just_coalesce="false" /><inkscape:path-effect
       effect="simplify"
       id="path-effect2"
       is_visible="true"
       lpeversion="1.3"
       threshold="100"
       steps="1"
       smooth_angles="360"
       helper_size="10"
       simplify_individual_paths="false"
       simplify_just_coalesce="false" /><inkscape:path-effect
       effect="simplify"
       id="path-effect1"
       is_visible="false"
       lpeversion="1.3"
       threshold="100"
       steps="1"
       smooth_angles="360"
       helper_size="10"
       simplify_individual_paths="false"
       simplify_just_coalesce="false" /></defs><path
     id="path4"
     style="fill:#e4a700;fill-opacity:1;stroke-width:4.95488"
     d="M 513.9567,63.565917 C 505.22043,63.36906 496.51669,63.383561 487.86165,63.612427 368.80082,66.76074 245.23672,121.1757 159.00214,203.32794 78.771384,279.76054 20.648034,392.00262 14.339647,502.63318 9.1055138,594.42448 44.954416,693.69196 105.35993,763.00437 199.48011,871.00272 345.10317,947.01972 487.86165,958.94745 614.98869,969.56915 757.004,927.74497 852.71431,843.40256 946.59167,760.67545 1009.2009,627.75643 1010.1554,502.63318 1010.9814,394.34712 957.57079,279.57317 878.41507,205.67508 783.48379,117.04928 645.00074,66.518768 513.9567,63.565917 Z m -26.09505,47.427603 c 129.80864,-3.0918 269.9034,47.94588 364.82063,136.54929 68.28635,63.74402 117.51712,161.68722 116.04304,255.09037 C 966.90888,617.72953 903.57151,737.72776 815.88297,812.3011 728.77181,886.38345 601.79814,922.5078 487.86165,912.75957 360.11267,901.82956 228.93383,835.81928 144.55444,739.2823 89.61063,676.4221 57.459506,585.9676 62.519651,502.63318 68.468445,404.6638 120.82609,305.81173 191.91486,238.1377 269.67977,164.10819 380.52474,113.55008 487.86165,110.99352 Z m 6.64869,43.02218 c -35.21929,0 -37.68893,30.38671 -53.99205,58.51788 -11.16464,19.26463 -14.19811,23.8857 -26.12451,29.22095 -3.21445,1.438 -7.36981,1.48206 -10.56421,0 -11.57182,-5.36878 -20.2384,-20.24873 -29.21062,-29.22095 -12.59591,-12.59591 -26.58598,-21.75488 -40.64093,-29.8695 -13.75297,-7.94026 -47.28445,-5.82083 -47.28445,-5.82083 l 37.57083,127.21807 c 0,0 52.93117,-8.03837 79.56517,-10.58333 30.14096,-2.88006 60.40257,-5.34497 90.68077,-5.29167 28.55572,0.0503 57.08027,2.54693 85.50382,5.29167 26.93792,2.60128 80.49742,10.58333 80.49742,10.58333 12.73722,-42.34242 25.844,-84.58072 37.57083,-127.21807 0,0 -36.94853,-2.91234 -52.07486,5.82083 -13.50808,7.7989 -21.50506,18.81425 -32.56028,29.8695 -10.37144,10.37144 -21.94988,23.9729 -35.02061,29.22095 -3.206,1.28726 -7.21227,1.41452 -10.36422,0 -11.89482,-5.33809 -15.6632,-8.86504 -25.99945,-29.22095 -13.59777,-26.7791 -12.33339,-58.51788 -47.55265,-58.51788 z m -263.19479,110.57516 -59.96688,39.45031 59.96688,39.30664 60.06145,-39.30664 z m 553.74036,0 -59.96688,39.45031 59.96688,39.30664 60.06145,-39.30664 z m -271.45836,59.05583 c -38.93526,0.44594 -126.92989,1.25783 -186.77982,19.27324 -29.90134,9.00059 -58.87452,22.39533 -86.87842,36.67373 -30.70167,15.65395 -57.33142,37.35039 -85.69812,59.14833 -25.57309,19.89422 -48.49837,42.83221 -74.220281,62.46027 -4.255086,4.39138 -7.204945,9.06226 -7.237285,14.00018 -0.02789,4.25894 2.114155,8.71643 7.46156,13.36456 32.422906,28.18289 56.851476,64.43357 90.065826,91.7851 21.72226,17.88795 47.35961,30.56261 72.96247,42.80307 30.75033,14.69256 61.16203,27.86754 95.64636,31.29835 23.36735,2.8105 46.54734,4.81246 69.86653,1.61333 47.14816,-6.46817 99.46259,-29.01326 138.33058,-41.34218 38.86799,-12.32891 61.21131,-23.21718 97.6483,-28.52435 36.43698,-5.30719 55.5848,-12.5712 83.02787,-8.08746 86.48276,14.12984 134.36806,103.97634 166.22474,84.02278 31.85666,-19.95356 -49.67874,-161.28188 -49.67874,-186.25572 0,-24.97386 81.49285,-147.06006 58.1029,-172.99305 -23.38997,-25.93297 -117.63473,58.5688 -141.59652,77.70636 -13.44004,10.73418 -32.87584,38.91818 -61.22365,55.46948 -19.53927,11.40831 -47.47918,14.28106 -63.70102,14.31386 -39.75671,0.0805 -53.59552,-10.61674 -87.6701,-5.82084 -34.0746,4.79592 -72.3641,28.38896 -111.57304,40.21667 -39.20894,11.82771 -118.8191,11.64167 -118.8191,11.64167 v -38.42763 c 0,0 79.64527,0.0169 118.8191,-11.64167 39.17383,-11.65858 75.06077,-35.67218 111.57304,-39.15833 36.51225,-3.48617 60.33172,9.35926 90.27873,5.82083 9.68683,-1.14456 21.26908,-1.53813 27.95901,-8.63668 8.74291,-9.27691 16.64899,-29.83892 9.10332,-37.14347 -7.54565,-7.30453 -15.83986,-4.09591 -37.06233,-5.02708 -21.22249,-0.93117 -53.59376,-9.66546 -90.27873,-5.82084 -36.68497,3.84464 -71.35912,25.82648 -111.57304,38.1 -40.21392,12.27354 -124.63993,11.64167 -124.63993,11.64167 l -7.9375,-33.97364 c 0,0 91.1537,0.45956 132.57743,-11.64166 26.62622,-7.77841 58.01118,-22.93064 80.18529,-32.75459 13.07505,-5.79274 33.96508,-16.30693 37.21427,-22.38417 3.24917,-6.07722 4.93379,-12.66135 0,-16.69872 -4.93382,-4.03736 -22.3508,-5.22904 -40.4797,-5.0214 z M 245.68677,446.3467 c 6.74893,-0.093 14.01978,3.97225 18.05884,8.43307 4.03908,4.46083 5.48909,9.55127 5.35988,15.26212 -0.12921,5.71085 -2.52744,12.50593 -6.76289,16.78709 -4.23547,4.28114 -10.54523,6.87814 -16.65583,6.91844 -6.11062,0.0403 -13.03977,-2.47577 -17.29662,-6.91844 -4.25687,-4.44269 -6.06861,-11.72896 -6.06061,-17.25528 0.008,-5.52631 1.05912,-9.58825 4.9692,-14.01465 3.9101,-4.42638 11.63908,-9.11935 18.38803,-9.21235 z m 327.9066,80.61936 c 25.60278,-0.37151 50.83779,2.44778 65.37689,4.40749 19.38545,2.61294 33.62514,3.37625 38.90666,9.43611 5.28154,6.05987 6.03832,14.39385 0.89814,20.75843 -5.14016,6.36456 -20.07575,8.39817 -39.8048,9.19892 -19.72905,0.80074 -58.19308,-6.45683 -90.71953,-3.35122 -32.52645,3.10561 -70.14929,29.43836 -111.57304,41.53958 -41.42373,12.10124 -132.57743,11.64167 -132.57743,11.64167 l 7.9375,-36.74814 c 0,0 84.2766,1.31516 124.63993,-11.64167 40.36333,-12.95683 78.63866,-39.72486 111.57304,-43.65625 8.23359,-0.98285 16.80838,-1.46108 25.34264,-1.58492 z m 14.22083,146.46497 c -1.38927,0.002 -2.7874,0.17946 -4.14548,0.52761 -17.82925,4.57062 -35.96863,13.33677 -54.22563,19.81636 -26.33186,9.34546 -53.42514,16.39418 -80.23955,24.24865 -20.2298,5.92572 -43.27802,5.29246 -60.83866,17.2589 -5.1913,3.53753 -2.65735,13.15408 0,18.84639 11.63637,24.92633 38.83309,40.34832 63.26384,52.99212 24.29615,12.57413 52.00161,20.72219 79.35795,20.93102 42.62823,0.3254 97.86894,2.84554 124.14332,-30.72422 3.19042,-4.07628 2.27935,-10.88177 0,-15.52929 -7.61987,-15.53667 -31.8403,-17.13086 -41.04865,-31.78204 -13.02119,-20.71767 0.3119,-52.96955 -15.32362,-71.79251 -2.68749,-3.2354 -6.77566,-4.80023 -10.94352,-4.79299 z m -356.49865,37.51657 -59.96688,39.4503 59.96688,39.30665 60.06145,-39.30665 z m 553.74036,0 -59.96688,39.4503 59.96688,39.30665 60.06145,-39.30665 z"
     inkscape:label="GAMBLE_FISH"
     sodipodi:nodetypes="sssssssssssssssssssssssssccsssccssssssccccccccccsssccsssccssssssssssssccssssssssccsssssssssssssssssssssccssscsssssssssssccccccccccc" /></svg>
