<?xml version="1.0" encoding="UTF-8" standalone="no"?>
<svg
   version="1.1"
   viewBox="0 0 2000 2000"
   id="svg3"
   sodipodi:docname="YES.svg"
   width="2000"
   height="2000"
   inkscape:export-filename="YES_4k.png"
   inkscape:export-xdpi="196.608"
   inkscape:export-ydpi="196.608"
   inkscape:version="1.3 (0e150ed6c4, 2023-07-21)"
   xmlns:inkscape="http://www.inkscape.org/namespaces/inkscape"
   xmlns:sodipodi="http://sodipodi.sourceforge.net/DTD/sodipodi-0.dtd"
   xmlns="http://www.w3.org/2000/svg"
   xmlns:svg="http://www.w3.org/2000/svg">
  <defs
     id="defs3" />
  <sodipodi:namedview
     id="namedview3"
     pagecolor="#505050"
     bordercolor="#eeeeee"
     borderopacity="1"
     inkscape:showpageshadow="0"
     inkscape:pageopacity="0"
     inkscape:pagecheckerboard="0"
     inkscape:deskcolor="#505050"
     inkscape:zoom="0.2310987"
     inkscape:cx="-170.92264"
     inkscape:cy="1213.7671"
     inkscape:window-width="1920"
     inkscape:window-height="1017"
     inkscape:window-x="1272"
     inkscape:window-y="-8"
     inkscape:window-maximized="1"
     inkscape:current-layer="svg3" />
  <g
     id="g3"
     inkscape:label="YES"
     transform="translate(28.424953,481.96742)">
    <path
       fill="#ffffff"
       d="m 1536.79,428.2 c -15.55,-15.29 -30.45,-31.28 -46.81,-45.67 -4.09,-3.6 -12.01,-5.29 -17.22,-6.82 -8.84,-2.6 -16.2,-18.47 -20.58,-25.88 -2.74,-4.64 -6.31,-8.91 -10.1,-12.72 -9.01,-9.07 -13.07,-22.29 -11.54,-35.13 0.83,-6.99 1.62,-14.23 5.25,-20.14 4.75,-7.74 18.28,-14.51 26.4,-18.12 q 1.06,-0.47 2.7,-1.8 0.39,-0.31 0.44,-0.81 0.35,-3.1 0.38,-6.12 c 0.1,-10.63 12.09,-20.39 20.61,-25.11 10.12,-5.61 19.45,-11.69 28.81,-18.46 15.95,-11.53 32.46,-12.33 54.65,-15.06 7.02,-0.87 15.17,-0.62 22.87,-1.25 q 5.28,-0.43 9.72,-0.14 c 11.61,0.77 23.43,1.05 34.81,2.14 25.74,2.47 50.02,4.82 75.34,3.83 q 17.67,-0.69 30.36,13.15 8.61,9.39 17.07,18.89 c 11.87,13.36 24.3,22.09 42.97,35.35 7.6,5.39 10.84,14.12 13.56,24.67 0.71,2.76 5.32,6.93 7.22,9.28 8.37,10.4 5.08,22.15 -6.7,27.72 q -10.11,4.78 -20.99,7.33 c -7.66,1.8 -16.77,-1.51 -23.2,-5.62 -8.31,-5.31 -18.1,-6.33 -27.5,-9.42 -9.57,-3.15 -18.94,-3.2 -27.49,-9.1 -3.92,-2.71 -8.93,-8.03 -12.7,-12.63 -8.06,-9.85 -17.1,-20.76 -27.24,-28.5 -3.56,-2.71 -7.14,-4.95 -9.37,-8.82 q -4.99,-8.65 -4.82,-20.22 0.01,-0.85 -0.81,-1.05 -2.38,-0.59 -5.38,-0.51 -25.89,0.7 -51.77,-0.1 c -8.84,-0.28 -17.47,0.6 -24.33,4.51 q -23.81,13.6 -52.39,27.84 c -1.55,0.77 -2.06,2.08 -1.37,3.77 q 7.31,17.93 9.67,37.14 c 0.46,3.78 2.5,5.81 4.94,8.38 9.26,9.72 18.56,20.05 28.78,28.76 q 7.59,6.47 10.47,8 c 9.51,5.04 19.02,9.79 27.8,16.08 5.78,4.14 11.89,9.86 17.68,14.95 8.75,7.7 16.51,16.4 23.06,25.84 q 4.88,7.02 10.52,13.45 c 6.66,7.61 16.2,14.85 23.89,22.75 q 5.98,6.15 11.31,13.96 14.77,21.67 26.46,45.2 c 3.77,7.6 6.83,18.14 10.46,27.05 1.93,4.76 6.02,13.1 8.24,20.07 3.58,11.26 3.59,25.03 4.74,35.81 1.08,10.1 6.25,20.55 10.77,30.39 3.46,7.52 5.72,15.53 7.25,24.41 1.07,6.15 2.44,12.44 2.39,18.43 q -0.11,14.05 -4.69,27.44 c -4.6,13.47 -8.56,24.56 -9.94,39.76 q -1.03,11.42 -9.48,19.13 -11.88,10.85 -23.9,21.59 c -6.7,5.98 -7.33,16.17 -15.1,22.2 -4.07,3.17 -8.36,4.82 -13.01,6.91 q -17.08,7.7 -23.64,9.63 -21.55,6.36 -43.88,8.84 c -3.44,0.39 -6.93,-0.48 -9.91,-0.4 q -21.2,0.58 -26.77,0.23 -6.38,-0.39 -9.75,-0.03 -14.38,1.56 -25.74,-1.71 c -13.74,-3.95 -26.51,-18.9 -36.28,-29.94 -16.42,-18.55 -33.05,-31.51 -50.2,-46.81 -12.25,-10.92 -22.98,-26.41 -25.23,-42.32 -1.68,-11.78 1.39,-29.06 14.49,-33.62 4.62,-1.61 14.36,-3.7 17.64,-6.98 3.82,-3.85 8.18,-7.72 14.07,-7.05 q 12.56,1.43 21.02,11.22 c 7.92,9.15 14.89,19 19.81,30.12 q 6.2,14.01 16.87,24.19 19.54,18.65 27.98,27.52 c 4.34,4.57 3.68,12.74 3.58,18.43 a 3.29,3.28 -87.4 0 0 3.04,3.33 q 16.24,1.21 31.02,2.51 10.65,0.94 17.14,-1.6 c 5.5,-2.15 11.62,-4 16.46,-6.84 10.08,-5.92 25.19,-17.83 29.03,-29.28 2.44,-7.27 3.12,-15.63 3.54,-22.35 0.26,-4.07 -0.48,-8.25 -0.28,-12.03 0.85,-16.21 -0.35,-32.47 0.65,-48.57 0.99,-15.89 -3.39,-29.87 -14.03,-41.86 -4.81,-5.43 -12.15,-12.11 -17.65,-18.82 -8.65,-10.55 -12.27,-25.33 -18.96,-36.77 -5.77,-9.85 -14.15,-18.97 -19.38,-27.6 q -6.33,-10.45 -11.38,-23.56 -5.71,-14.79 -18.46,-26.55 c -4.21,-3.88 -8.85,-9.78 -12.56,-15.33 -9.61,-14.4 -14.75,-22.51 -25.4,-32.98 z"
       id="path3"
       inkscape:label="S" />
    <path
       fill="#ffffff"
       d="m 921.46,551.64 c -0.43,19.44 -0.58,38.3 -3.55,57.61 -1.9,12.38 -3.18,25.2 -5.65,37.63 -3.44,17.34 -10.33,33.99 -12.56,51.79 -0.81,6.46 -2.24,13.33 -1.73,19.89 0.37,4.8 -0.65,9.21 -0.25,14.11 q 0.38,4.52 0.3,7.68 c -0.08,3.47 -0.82,14.81 4.48,15.07 q 30.06,1.43 75.34,0.73 3.83,-0.06 9.31,0.32 c 6.98,0.48 12.19,-0.5 18.35,-1.22 8.12,-0.95 15.53,-3.73 23.54,-4.97 15.56,-2.42 26.29,-3.41 40.46,-3.56 1.59,-0.02 3.69,0.91 4.99,0.71 q 20.93,-3.2 42.01,-5.07 c 7.17,-0.64 18.44,0.94 23.54,2.62 10.21,3.34 11.16,10.26 14.24,19.25 a 3.23,3.23 0 0 0 2.84,2.17 q 3.74,0.25 7.4,0.48 c 2.35,0.15 7.08,1.38 10,0.42 q 15.13,-4.99 30.87,-7.36 c 4.91,-0.74 10.12,-0.65 15.3,-0.97 4.4,-0.27 7.65,1.16 11.76,1.36 12.66,0.59 25.41,9.24 24.07,23.01 -0.83,8.49 -7.3,14.43 -15.47,15.81 q -3.65,0.61 -11.44,-0.65 c -9.3,-1.51 -15.89,-2.35 -24.44,-1.55 q -5,0.46 -12.11,2.58 -13.78,4.09 -26.56,6.73 -26.4,5.46 -66.78,13.29 c -4.18,0.81 -9.95,1.49 -14.9,2.65 q -1.59,0.37 -8.22,1.7 c -3.68,0.74 -7.54,2.22 -10.84,2.97 -22.76,5.15 -45.42,10.9 -68.26,15.66 -17.7,3.68 -32.9,8.31 -51.32,14.75 -19.36,6.77 -41.47,12.38 -61.97,8.17 -9.1,-1.87 -18.08,-4.52 -25.86,-9.81 -5.06,-3.44 -6.99,-11.52 -5.48,-17.19 1.92,-7.21 5.85,-12.67 7.76,-19.27 a 1.79,1.79 0 0 0 -1.41,-2.26 q -2.54,-0.45 -4.95,0.53 -6.23,2.52 -12.37,0.72 c -4.87,-1.42 -10.79,-4.07 -13.12,-8.67 -7.15,-14.12 0.41,-22.28 12.19,-28.32 4.77,-2.45 9.64,-5.28 14.58,-7.32 2.87,-1.19 1.92,-2.91 1.92,-5.31 q 0.11,-79.16 -0.05,-158.32 c -0.02,-10.18 0.4,-17.96 2.67,-26.7 2.07,-7.97 9.94,-11.12 17.31,-12.45 q 3.67,-0.66 3.65,-4.48 c -0.03,-4 2.12,-11.09 -3.42,-12.22 -9.48,-1.95 -19.45,-3.29 -22.12,-14.49 -1.5,-6.32 -1.27,-12.78 3.32,-17.61 1.02,-1.07 2.37,-1.19 3.44,-2.42 q 0.32,-0.38 0.34,-0.88 0.03,-0.82 0.64,-1.25 0.38,-0.27 0.4,-0.72 c 0.25,-5.09 0.03,-11.92 2.56,-16.22 2.75,-4.71 7.85,-8.37 12.43,-10.92 q 0.4,-0.23 0.54,-0.67 c 0.49,-1.65 1.28,-2.96 1.44,-4.64 q 1.48,-15.93 3.37,-31.81 0.2,-1.7 -2.34,-2.6 c -17.91,-6.31 -19.08,-14.38 -17.96,-32.07 1.3,-20.47 -0.53,-41.1 2.68,-61.37 q 0.47,-2.98 3.89,-16.28 c 2.64,-10.31 3.87,-18.64 4.35,-30.46 q 0.4,-9.67 2.17,-19.21 c 0.25,-1.32 -0.97,-2.93 -2.33,-3.48 -9.57,-3.84 -19.58,-13.92 -14.01,-25.17 q 5.05,-10.21 16.47,-11.65 a 0.8,0.79 -85.7 0 0 0.68,-0.59 q 0.55,-2 0.45,-4.37 -0.76,-18.4 -0.8,-31 c -0.01,-4.06 0.65,-8.07 3.44,-11.32 q 5.16,-6 12.22,-9.77 0.44,-0.23 0.65,-0.68 3.89,-7.87 6.53,-16.18 c 2.3,-7.25 7.97,-10.43 15.45,-9.79 q 8.97,0.76 14.98,8.71 1.71,2.26 5.24,2.26 104.03,0.15 208.06,-0.01 0.07,0 11.88,-0.33 14.99,-0.43 29.64,3.2 c 8.71,2.16 12.71,15.74 9.46,22.66 -0.68,1.44 -1.03,3.75 -0.68,5.26 q 2.11,9.01 2.96,17.74 a 1.65,1.64 87.5 0 0 1.62,1.49 c 10.43,0.09 24.73,2.12 27.23,14.91 2.3,11.74 -5.31,20.39 -16.65,22.27 -24.4,4.05 -48.98,6.37 -74.35,7.08 -32.52,0.91 -65.04,3.83 -97.41,7.02 -18.89,1.87 -37.67,2.74 -56.52,3.7 -14.47,0.74 -29.86,2.13 -44.79,2.88 a 1.53,1.53 0 0 0 -1.45,1.53 c 0,28.5 -0.81,57.66 0.77,86.37 q 0.18,3.31 -2,13.77 -1.42,6.8 -7.36,13.36 -0.33,0.37 -0.42,0.85 c -0.98,5.38 -1.11,10.59 -1.77,16.01 -0.3,2.46 0.76,6.54 0.76,9.44 q 0.03,22.54 0.02,45.05 0,2.62 2.6,2.29 c 6.25,-0.81 12.3,-1.19 18.42,-2.66 q 23.54,-5.65 49.98,-8.35 19.62,-2 40.21,-7.76 c 7.34,-2.06 15.44,-3.54 21.54,-4.27 q 39.25,-4.69 78.7,-7.03 c 14.21,-0.85 29.49,-0.71 44.27,-1.11 6.94,-0.19 13.33,0.52 20.04,1.32 6.6,0.79 14.18,3.27 18.02,8.74 6.34,9.04 0.11,21.84 -9.17,25.82 q -3.02,1.29 -8.39,1.49 -19.12,0.7 -39.01,3.39 a 1.39,1.39 0 0 0 -1.07,1.98 c 3.83,7.83 4.02,18.72 -1.45,25.67 -7.81,9.92 -26.91,9.22 -38.15,10.9 q -19.89,2.96 -29.29,5.84 -6.75,2.06 -28.7,11.79 c -11.64,5.16 -23.95,4.45 -36.55,6.21 q -2.11,0.3 -4.44,-0.28 -6.42,-1.58 -13,-0.76 c -28.93,3.64 -57.93,6.37 -87.11,5.74 a 0.72,0.72 0 0 0 -0.74,0.7 z"
       id="path2"
       inkscape:label="E" />
    <path
       fill="#ffffff"
       d="m 296.75,505.7 c -15.81,-1.88 -39.19,-1.97 -44.35,-19.38 -3.72,-12.53 3.7,-27 13.51,-34.67 0.82667,-0.65333 1.47667,-1.34333 1.95,-2.07 0.18667,-0.29333 0.20333,-0.59333 0.05,-0.9 -5.9,-11.54 -15.59,-22.54 -23.38,-32.97 -13.17,-17.62 -23.38,-37.06 -36.46,-54.74 -21.6,-29.2 -41.62,-54.83 -62.83,-88.68 -8.01,-12.77 -15.55,-26.82 -23.33,-40.21 -4.42,-7.6 -9.33,-19.62 -5.46,-27.81 2.72,-5.77 5.86,-8.95 3.23,-16.03 -4.95,-13.34 -10.56,-29.58 7.49,-36.72 7.86,-3.1 15.42,-0.53 19.02,7.46 9.19,20.41 18.39,36.55 29.53,53.07 3.11,4.61 4.29,11.64 7.9,15.64 0.25333,0.28 0.51333,0.28667 0.78,0.02 1.49,-1.51 2.16,-3.67 3.02,-5.01 1.97,-3.08 3.89,-6.6 6.79,-8.62 7.87,-5.46 21.91,-4.77 29.5,0.88 9.13,6.79 18.19,14.13 24.07,25.05 7.83333,14.55333 15.21667,29.32333 22.15,44.31 7.88,17.04 17.22,33.35 27.02,49.17 14.38,23.23 23.81,42.13 35.26,63.55 1.92,3.59333 3.9,6.54 5.94,8.84 0.24,0.27333 0.49667,0.29333 0.77,0.06 7.69,-6.4 14.64,-14.86 17.1,-24.68 1.26,-5.05333 3.32,-9.57333 6.18,-13.56 9.07,-12.66 21.2,-25.05 31.97,-37.25 9.59,-10.87 22.12,-21.86 31.67,-29.6 18.62,-15.09 36.22,-31.21 55.06,-46.06 11.36,-8.95 20.98,-18.98 31.07,-28.99 5.51,-5.47 13,-11.75 20.97,-10.71 10.61,1.4 18.18,12.91 13.81,23.15 -3.48,8.15333 -8.53,15.48667 -15.15,22 -0.5808,0.55021 -0.0266,1.50877 0.74,1.28 1.24,-0.35333 2.50667,-1.06667 3.8,-2.14 9.26,-7.72 18.07,-14.7 28.57,-21.96 17.8,-12.32 35.28667,-25.07333 52.46,-38.26 7.53,-5.78 22.04,-15.66 32.44,-18 11.93,-2.69 26.61,-0.58 31.99,11.75 4.78,10.97 -1.02,25.92 -7.87,34.84 -5.9,7.66667 -11.52,15.53667 -16.86,23.61 -3.91,5.92 -6.27,12.83 -9.22,19.39 -0.14667,0.32 -0.39333,0.52 -0.74,0.6 -3.46,0.74667 -5.93,3.11 -7.41,7.09 -4.73,12.7 -12.07,27.33 -20.46,38.99 -18,25.03 -44.08,45.52 -70.29,61.36 -4.12667,2.5 -8.21667,5.06 -12.27,7.68 -13.42,8.7 -25.58,19.49 -39.11,27.72 -6.04667,3.67333 -12.27,7.02667 -18.67,10.06 -12.53,5.93 -20.29,12.22 -28.77,23.18 -12.49333,16.16 -25.04333,32.28 -37.65,48.36 -10.66667,13.60667 -20.07333,27.98 -28.22,43.12 -0.22989,0.42357 -0.0186,0.95182 0.44,1.1 2.95,0.97 5.61,2.01 7.47,4.69 16.3,23.47 2.75,58.39 -5.62,82.21 -4.05,11.52 -5.85,21.27 -5.64,32.53 0.18,9.83 -0.68,20.56 -0.69,28.5 -0.0533,69.98667 -0.0567,115.92333 -0.01,137.81 0.02,11.29 4.56,39.06 -8.33,47.04 -2.6,1.6 -6.61,2.07 -9.77,3.31 -0.30027,0.11517 -0.63108,0.10797 -0.92,-0.02 -2.16,-1 -6.12,-4.06 -7.36,-0.13 -2.13,6.76 -5.46,7.47 -11.86,9.24 -10.74,2.98 -20.06,-5.03 -23.72,-14.73 -3.16,-8.39333 -5.49667,-15.13333 -7.01,-20.22 -2.35,-7.9 -15.41,-0.38 -20.49,-0.66 -17.78,-0.98 -21.36,-20.41 -21.79,-33.97 -0.12,-3.62 0.81,-8.3 0.5,-12.36 -1.06305,-58.99298 -6.21681,-86.60156 2.43,-150.06 1.9,-13.69 7.6,-26.8 9.92,-40.45 1.05,-6.19 2.1,-11.28 1.23,-18.27 -0.85,-6.84 1.08,-13.62 -0.22,-20 -0.29333,-1.44667 -0.4,-2.77333 -0.32,-3.98 0.59333,-9.32667 1.76,-17.13667 3.5,-23.43 2.74,-9.98 9.18,-24.24 12.81,-38.66 0.4,-1.60667 -0.22,-2.50667 -1.86,-2.7 z m 80.57,-72.97 c 2.21333,1.15333 4.36333,1.24667 6.45,0.28 6.19,-2.88 15.87,-8.33 19.41,-14.26 0.50692,-0.84766 -0.37876,-1.84404 -1.28,-1.44 -7.89,3.63 -19.56,7.27 -24.93,13.7 -0.45621,0.55434 -0.28656,1.38803 0.35,1.72 z"
       id="path1"
       inkscape:label="Y"
       sodipodi:nodetypes="ccccccccccccccccccccccccccccccccccccccccccccccccccccccccccccccccccscccccccccccccccc" />
  </g>
</svg>
